HIERARCHY
ROOT Hips
{
 OFFSET 0.000000 0.000000 0.000000
 CHANNELS 6 Xposition Yposition Zposition Yrotation Xrotation Zrotation
 JOINT Chest
 {
  OFFSET 0.000000 10.385163 0.011643
  CHANNELS 3 Yrotation Xrotation Zrotation
  JOINT Chest2
  {
   OFFSET 0.000000 11.579334 -0.021150
   CHANNELS 3 Yrotation Xrotation Zrotation
   JOINT Chest3
   {
    OFFSET 0.000000 10.463212 0.000000
    CHANNELS 3 Yrotation Xrotation Zrotation
    JOINT Chest4
    {
     OFFSET 0.000000 10.463212 0.000000
     CHANNELS 3 Yrotation Xrotation Zrotation
     JOINT Neck
     {
      OFFSET 0.000000 14.544862 0.000000
      CHANNELS 3 Yrotation Xrotation Zrotation
      JOINT Head
      {
       OFFSET 0.000000 9.730630 -0.050295
       CHANNELS 3 Yrotation Xrotation Zrotation
       End Site
       {
        OFFSET 0.000000 18.757589 -0.026270
       }
      }
     }
     JOINT RightCollar
     {
      OFFSET -2.985174 8.102313 0.000000
      CHANNELS 3 Yrotation Xrotation Zrotation
      JOINT RightShoulder
      {
       OFFSET -13.558590 0.000000 0.000000
       CHANNELS 3 Yrotation Xrotation Zrotation
       JOINT RightElbow
       {
        OFFSET -28.208579 0.000000 0.000000
        CHANNELS 3 Yrotation Xrotation Zrotation
        JOINT RightWrist
        {
         OFFSET -23.322907 0.000000 0.010349
         CHANNELS 3 Yrotation Xrotation Zrotation
         End Site
         {
          OFFSET -17.603338 0.000000 0.000000
         }
        }
       }
      }
     }
     JOINT LeftCollar
     {
      OFFSET 2.985174 8.102313 0.000000
      CHANNELS 3 Yrotation Xrotation Zrotation
      JOINT LeftShoulder
      {
       OFFSET 13.558590 0.000000 0.000000
       CHANNELS 3 Yrotation Xrotation Zrotation
       JOINT LeftElbow
       {
        OFFSET 28.208579 0.000000 0.000000
        CHANNELS 3 Yrotation Xrotation Zrotation
        JOINT LeftWrist
        {
         OFFSET 23.322907 0.000000 0.010349
         CHANNELS 3 Yrotation Xrotation Zrotation
         End Site
         {
          OFFSET 17.603338 0.000000 0.000000
         }
        }
       }
      }
     }
    }
   }
  }
 }
 JOINT RightHip
 {
  OFFSET -8.341224 -0.057053 -0.005822
  CHANNELS 3 Yrotation Xrotation Zrotation
  JOINT RightKnee
  {
   OFFSET 0.000000 -44.280013 0.005508
   CHANNELS 3 Yrotation Xrotation Zrotation
   JOINT RightAnkle
   {
    OFFSET 0.000000 -43.261728 0.009315
    CHANNELS 3 Yrotation Xrotation Zrotation
    JOINT RightToe
    {
     OFFSET 0.000000 -8.082955 18.257715
     CHANNELS 3 Yrotation Xrotation Zrotation
     End Site
     {
      OFFSET 0.000000 -1.634678 7.189621
     }
    }
   }
  }
 }
 JOINT LeftHip
 {
  OFFSET 8.341224 -0.057053 -0.005822
  CHANNELS 3 Yrotation Xrotation Zrotation
  JOINT LeftKnee
  {
   OFFSET 0.000000 -44.280013 0.005508
   CHANNELS 3 Yrotation Xrotation Zrotation
   JOINT LeftAnkle
   {
    OFFSET 0.000000 -43.261728 0.009315
    CHANNELS 3 Yrotation Xrotation Zrotation
    JOINT LeftToe
    {
     OFFSET 0.000000 -8.082955 18.257715
     CHANNELS 3 Yrotation Xrotation Zrotation
     End Site
     {
      OFFSET 0.000000 -1.634678 7.189621
     }
    }
   }
  }
 }
}
MOTION
Frames: 8
Frame Time: 0.016667
-372.012813 95.123286 -210.284005 -47.808554 -14.322422 -1.266831 -4.730692 9.291997 3.248749 -2.160651 4.096602 1.533990 -2.160651 4.096602 1.533990 -1.630107 3.067100 1.164524 3.783096 8.874554 -2.355185 8.558008 -19.402605 -6.447520 5.257544 -3.295994 4.651297 -23.850403 1.696279 61.951992 -8.878045 -7.804942 -14.940515 0.025675 -2.177052 -9.662134 -1.159961 -3.354649 -13.010118 -0.695768 -14.044365 -69.102453 -62.250614 -11.157888 -26.939297 -15.970220 -7.393899 8.794940 -3.325345 -1.461237 2.533538 -3.628514 25.488393 -0.550718 -9.347786 -10.182041 2.640736 0.000000 -0.000000 0.000000 10.143184 4.012752 8.669554 -1.933931 57.565293 5.078586 -1.484158 18.181640 -6.583027 1.154890 -41.566073 -6.421626
-373.755986 95.057640 -209.576051 -46.505924 -14.568145 -1.600958 -4.678774 9.416385 3.307289 -2.139620 4.151803 1.560049 -2.139688 4.151873 1.560071 -1.614740 3.108553 1.184132 3.444680 8.958576 -2.188350 7.807497 -19.293747 -5.950146 5.012616 -2.804542 4.747433 -22.213281 0.192730 63.630902 -8.958425 -9.074077 -14.856977 0.847607 -2.790969 -11.060316 -1.465507 -3.351338 -13.261399 -0.683904 -13.589158 -70.078058 -57.357371 -7.628130 -25.593532 -15.191971 -7.618392 9.203687 -4.914610 -0.112995 3.282746 -2.994497 25.968159 -1.148508 -9.975135 -11.573782 2.525899 -0.000000 -0.000000 0.000000 12.758675 0.999047 8.663780 -1.317024 60.335428 8.444645 -0.391920 16.579150 -4.390014 0.849316 -36.563561 -9.227210
-375.459622 95.064602 -208.827380 -45.267678 -14.902606 -1.895051 -4.503865 9.550800 3.367400 -2.064184 4.212144 1.584262 -2.064270 4.212157 1.584273 -1.558516 3.153831 1.201944 3.048137 9.112278 -2.019551 6.936503 -19.057192 -5.415707 4.713318 -2.438253 4.775347 -20.490876 -1.237480 65.341209 -9.009769 -9.783840 -14.463875 1.717067 -3.370462 -12.398095 -1.770171 -3.351897 -13.633451 -0.935916 -13.410049 -70.706450 -51.424829 -3.791848 -24.045864 -13.687413 -7.788962 9.172109 -7.705189 1.801488 3.842609 -1.310704 25.684392 -1.749912 -10.207267 -12.684761 2.475761 0.000000 -0.000000 -0.000000 15.861913 -1.849994 8.214754 -0.475228 62.363381 12.527488 0.153407 13.437320 -1.664502 0.066923 -30.620455 -11.635595
-377.051082 95.153627 -208.089250 -44.448570 -15.035651 -2.024464 -4.208167 9.605773 3.396042 -1.934043 4.238398 1.591264 -1.934043 4.238398 1.591264 -1.460935 3.173829 1.206351 2.705198 9.238513 -1.879395 6.188305 -18.860952 -4.967717 4.439760 -2.074628 4.737460 -18.396024 -2.676454 66.958744 -8.852560 -10.047305 -13.797076 2.419457 -3.699517 -13.080085 -2.077219 -3.330042 -13.975537 -1.208399 -13.181748 -71.184140 -45.171301 0.021988 -22.036492 -12.091995 -7.775788 8.412888 -9.329516 3.489634 4.147509 -0.513475 25.123776 -2.159750 -10.225270 -13.470703 2.479782 0.000000 0.000000 0.000000 17.400805 -4.343848 7.521538 0.907154 63.557399 15.188203 0.311636 10.644249 0.184951 -0.529163 -26.261433 -12.782041
-378.476077 95.350664 -207.386223 -44.222404 -14.803757 -1.904135 -3.758277 9.526472 3.376697 -1.733827 4.206716 1.572834 -1.733747 4.206819 1.572861 -1.310522 3.150793 1.191096 2.448810 9.295519 -1.792305 5.641532 -18.779484 -4.671380 4.238738 -1.618019 4.597380 -15.668329 -4.136075 68.514591 -8.457577 -10.056146 -12.798942 2.912573 -3.824503 -12.714125 -2.412391 -3.251885 -14.257324 -1.501565 -12.839605 -71.478421 -38.602053 3.516983 -19.502602 -10.706905 -7.229840 6.513132 -8.510587 4.582581 4.226232 -1.640156 24.359959 -2.144911 -10.062951 -13.863046 2.545861 -0.000606 0.058093 0.173251 16.142500 -6.450845 6.766422 3.476378 63.915261 15.509111 0.125157 9.078936 0.744197 -0.351575 -25.137939 -12.140893
-379.788895 95.629764 -206.693739 -44.416432 -14.375722 -1.613332 -3.188595 9.371595 3.315896 -1.479345 4.142504 1.533293 -1.479282 4.142620 1.533329 -1.119350 3.103384 1.159568 2.244236 9.325880 -1.736615 5.213490 -18.739932 -4.463263 4.060348 -1.161117 4.390912 -12.555835 -5.642346 69.933746 -7.792398 -9.658393 -11.533946 3.293434 -3.848255 -11.670565 -2.750330 -3.156495 -14.507337 -1.816083 -12.459199 -71.620241 -31.561473 6.800120 -16.523939 -9.355055 -6.114574 4.051354 -6.539121 5.447105 4.131768 -3.596578 23.304202 -1.824259 -9.678479 -13.930169 2.658649 -0.000240 0.116069 0.346543 13.304987 -8.295856 6.073363 6.500713 63.554882 14.281686 -0.226281 7.990811 0.618505 0.129948 -25.647707 -10.313862
-381.079768 95.922539 -205.989372 -44.870812 -13.962282 -1.265163 -2.603090 9.222025 3.214434 -1.217132 4.080623 1.475751 -1.217132 4.080623 1.475751 -0.922337 3.057566 1.114489 2.100306 9.358845 -1.676858 4.901932 -18.691387 -4.276065 3.842770 -0.868078 4.224651 -9.529710 -7.225891 70.956513 -6.697366 -8.444221 -10.199622 3.537995 -3.679498 -10.449614 -3.016857 -3.136342 -14.664749 -1.918295 -11.922919 -71.887005 -24.475218 10.105608 -13.125447 -7.872861 -5.011922 2.132834 -4.897445 6.369350 3.968797 -5.112787 22.170893 -1.490593 -9.143591 -13.831691 2.786685 -0.000000 0.000000 0.000000 10.489050 -9.922783 5.580133 8.152801 62.704334 11.832745 -0.089387 6.851886 0.136302 0.331308 -25.318008 -8.116425
-382.371975 96.222486 -205.253356 -45.616811 -13.653498 -0.853641 -2.021886 9.109182 3.053655 -0.955846 4.035023 1.392515 -0.955870 4.034942 1.392489 -0.725831 3.024015 1.050243 2.035028 9.409721 -1.598173 4.733839 -18.605712 -4.088211 3.555813 -0.837651 4.126386 -6.713910 -8.828140 71.485649 -5.136116 -6.127491 -8.667465 3.503938 -3.195127 -8.937616 -3.185698 -3.233266 -14.693925 -1.853103 -11.195819 -72.405394 -17.214640 13.740344 -9.079643 -6.104535 -4.487084 1.154207 -4.007727 7.469542 3.716949 -5.858097 20.980818 -1.254891 -8.391516 -13.584732 2.912994 -0.005045 -0.372653 -1.357825 7.918624 -11.288957 5.336421 7.311197 61.566142 7.568486 1.059199 5.309529 -0.687057 0.239472 -23.134291 -5.770713
